<?xml version="1.0" encoding="UTF-8" standalone="no"?>
<svg
   xmlns:dc="http://purl.org/dc/elements/1.1/"
   xmlns:cc="http://creativecommons.org/ns#"
   xmlns:rdf="http://www.w3.org/1999/02/22-rdf-syntax-ns#"
   xmlns:svg="http://www.w3.org/2000/svg"
   xmlns="http://www.w3.org/2000/svg"
   xmlns:sodipodi="http://sodipodi.sourceforge.net/DTD/sodipodi-0.dtd"
   xmlns:inkscape="http://www.inkscape.org/namespaces/inkscape"
   width="92pt"
   height="120pt"
   viewBox="0 0 92 120"
   version="1.1"
   id="svg2"
   inkscape:version="0.48.2 r9819"
   sodipodi:docname="logo.svg">
  <metadata
     id="metadata118">
    <rdf:RDF>
      <cc:Work
         rdf:about="">
        <dc:format>image/svg+xml</dc:format>
        <dc:type
           rdf:resource="http://purl.org/dc/dcmitype/StillImage" />
      </cc:Work>
    </rdf:RDF>
  </metadata>
  <defs
     id="defs116" />
  <sodipodi:namedview
     pagecolor="#ffffff"
     bordercolor="#666666"
     borderopacity="1"
     objecttolerance="10"
     gridtolerance="10"
     guidetolerance="10"
     inkscape:pageopacity="0"
     inkscape:pageshadow="2"
     inkscape:window-width="640"
     inkscape:window-height="480"
     id="namedview114"
     showgrid="false"
     inkscape:zoom="1.1125147"
     inkscape:cx="52.788558"
     inkscape:cy="86.081976"
     inkscape:window-x="0"
     inkscape:window-y="24"
     inkscape:window-maximized="0"
     inkscape:current-layer="svg2" />
  <path
     fill="#f6c113"
     d=" M 0.00 0.00 L 92.00 0.00 L 92.00 78.99 C 90.57 80.06 89.95 82.06 91.19 83.54 L 90.97 84.87 C 89.62 85.52 89.20 86.58 89.72 88.04 L 89.78 88.80 C 89.58 89.38 89.19 90.55 88.99 91.14 C 85.92 99.95 79.42 107.32 71.68 112.39 C 71.56 112.47 71.32 112.63 71.21 112.71 C 68.47 114.68 65.33 115.97 62.14 117.01 C 61.54 117.17 60.35 117.49 59.75 117.64 L 59.12 117.95 C 57.76 117.21 56.62 117.45 55.72 118.66 L 54.58 119.49 C 52.90 117.86 50.38 118.38 48.91 120.00 L 42.99 120.00 C 41.55 118.41 39.23 118.02 37.45 119.29 L 36.17 118.81 C 35.44 117.46 34.35 117.13 32.91 117.84 L 32.26 117.67 C 31.67 117.50 30.48 117.17 29.89 117.01 C 16.71 112.57 5.86 101.44 1.98 88.06 C 2.84 86.69 2.64 85.56 1.38 84.66 C 1.04 84.21 0.35 83.31 0.00 82.86 L 0.00 0.00 Z"
     id="path4" />
  <path
     fill="#c82a27"
     d=" M 2.81 2.72 C 31.63 2.68 60.45 2.62 89.26 2.75 C 89.30 6.83 89.33 10.92 89.23 15.00 C 84.90 14.94 80.57 14.83 76.25 15.11 C 76.28 14.72 76.34 13.94 76.36 13.55 C 74.86 13.13 72.34 14.06 71.92 11.98 C 72.36 9.12 76.22 11.06 78.20 10.58 C 78.55 11.07 79.24 12.06 79.59 12.55 C 80.14 12.61 81.25 12.74 81.81 12.81 L 82.59 12.90 C 82.59 11.08 82.60 9.26 82.61 7.44 C 76.33 7.54 70.04 7.55 63.76 7.43 C 63.47 9.48 64.25 11.11 66.60 10.87 C 66.63 12.29 66.64 13.71 66.64 15.12 C 62.45 14.89 58.25 14.90 54.06 15.12 C 54.21 13.17 53.69 10.36 56.38 10.11 C 56.42 9.23 56.45 8.36 56.48 7.48 C 52.86 7.50 49.24 7.50 45.62 7.53 C 44.94 9.68 44.06 11.76 43.02 13.76 C 41.88 11.75 40.97 9.62 39.77 7.65 C 36.43 7.30 33.06 7.54 29.71 7.51 C 29.71 8.49 29.71 9.47 29.71 10.45 C 30.41 10.49 31.79 10.58 32.48 10.62 C 32.51 12.13 32.53 13.65 32.54 15.16 C 27.20 14.86 21.86 14.88 16.53 15.13 C 16.57 13.10 15.84 10.18 18.86 10.35 C 18.87 9.39 18.87 8.42 18.87 7.45 C 15.72 7.51 12.56 7.51 9.40 7.45 C 9.41 8.46 9.41 9.47 9.41 10.48 C 10.02 10.54 11.24 10.66 11.84 10.71 C 11.79 13.81 11.69 16.90 11.55 19.99 C 11.51 18.93 11.47 17.87 11.43 16.80 C 11.41 16.34 11.37 15.43 11.35 14.97 C 8.51 14.96 5.67 14.96 2.83 14.96 C 2.76 10.88 2.77 6.80 2.81 2.72 Z"
     id="path6" />
  <path
     fill="#175397"
     d=" M 9.40 7.45 C 12.56 7.51 15.72 7.51 18.87 7.45 C 18.87 8.42 18.87 9.39 18.86 10.35 C 15.84 10.18 16.57 13.10 16.53 15.13 C 16.54 15.53 16.56 16.35 16.57 16.75 C 21.88 16.66 27.21 17.00 32.52 16.55 L 32.54 15.16 C 32.53 13.65 32.51 12.13 32.48 10.62 C 31.79 10.58 30.41 10.49 29.71 10.45 C 29.71 9.47 29.71 8.49 29.71 7.51 C 33.06 7.54 36.43 7.30 39.77 7.65 C 40.97 9.62 41.88 11.75 43.02 13.76 C 44.06 11.76 44.94 9.68 45.62 7.53 C 49.24 7.50 52.86 7.50 56.48 7.48 C 56.45 8.36 56.42 9.23 56.38 10.11 C 53.69 10.36 54.21 13.17 54.06 15.12 L 54.14 16.56 C 58.29 16.89 62.46 16.91 66.61 16.54 L 66.64 15.12 C 66.64 13.71 66.63 12.29 66.60 10.87 C 64.25 11.11 63.47 9.48 63.76 7.43 C 70.04 7.55 76.33 7.54 82.61 7.44 C 82.60 9.26 82.59 11.08 82.59 12.90 L 81.81 12.81 C 81.93 11.21 82.04 9.61 82.14 8.01 C 76.29 8.11 70.43 7.81 64.59 8.14 L 64.03 9.11 C 64.79 9.44 66.30 10.09 67.06 10.41 C 67.19 13.46 67.38 16.53 67.12 19.57 C 67.16 21.28 64.70 20.90 63.74 21.68 C 64.55 22.63 65.68 22.99 66.92 22.86 C 72.01 22.94 77.10 22.81 82.19 22.87 C 82.18 21.43 82.14 19.98 82.07 18.53 C 79.99 17.68 78.88 19.63 77.63 20.89 C 75.53 20.87 73.43 20.84 71.33 20.78 C 71.32 19.29 71.32 17.81 71.32 16.32 C 72.75 15.83 75.17 16.77 75.77 14.94 C 75.16 13.03 72.55 14.04 71.06 13.52 C 71.15 12.46 71.28 11.40 71.45 10.34 C 73.52 9.80 75.68 9.97 77.80 10.06 L 78.20 10.58 C 76.22 11.06 72.36 9.12 71.92 11.98 C 72.34 14.06 74.86 13.13 76.36 13.55 C 76.34 13.94 76.28 14.72 76.25 15.11 L 76.14 16.64 C 80.52 16.85 84.91 16.72 89.29 16.76 C 89.25 20.76 89.42 24.77 89.14 28.77 C 60.41 28.63 31.68 28.63 2.95 28.77 C 2.61 24.77 2.82 20.76 2.77 16.76 C 5.66 16.74 8.54 16.75 11.43 16.80 C 11.47 17.87 11.51 18.93 11.55 19.99 C 11.69 16.90 11.79 13.81 11.84 10.71 C 11.24 10.66 10.02 10.54 9.41 10.48 C 9.41 9.47 9.41 8.46 9.40 7.45 Z"
     id="path8" />
  <path
     fill="#ffffff"
     d=" M 10.00 8.03 C 12.60 8.63 16.55 6.65 18.24 9.01 C 17.72 9.40 16.67 10.17 16.14 10.55 C 15.88 13.88 15.98 17.22 16.15 20.55 C 16.85 20.75 18.27 21.17 18.98 21.37 C 18.75 22.38 18.14 22.86 17.15 22.81 C 14.81 22.96 12.45 22.96 10.11 22.78 C 10.03 22.32 9.86 21.39 9.77 20.93 C 10.45 20.85 11.80 20.69 12.47 20.60 C 12.48 17.19 12.48 13.78 12.49 10.37 C 11.86 10.24 10.62 9.99 9.99 9.86 C 10.00 9.40 10.00 8.48 10.00 8.03 Z"
     id="path10" />
  <path
     fill="#ffffff"
     d=" M 29.76 9.10 C 32.50 6.99 36.35 8.32 39.57 8.16 C 40.57 10.58 41.73 12.94 43.13 15.16 C 44.38 12.89 45.24 10.45 46.11 8.02 C 49.25 8.04 52.40 7.91 55.54 8.08 L 56.10 9.15 C 55.47 9.53 54.20 10.30 53.56 10.69 C 53.28 13.95 53.37 17.25 53.54 20.52 C 54.12 20.68 55.28 20.98 55.86 21.14 L 55.94 22.80 C 52.81 22.89 49.68 22.92 46.56 22.79 C 46.33 20.93 49.19 20.99 48.79 19.18 C 48.85 16.24 48.79 13.30 48.80 10.36 C 45.90 12.77 46.06 17.08 44.00 20.08 C 43.34 20.04 42.04 19.95 41.39 19.91 C 40.27 16.77 38.94 13.72 37.40 10.77 C 36.24 13.77 36.68 17.34 37.09 20.46 C 37.69 21.04 38.89 22.18 39.48 22.76 C 36.50 22.91 33.52 22.90 30.54 22.84 L 30.40 21.26 C 31.01 21.08 32.22 20.71 32.83 20.53 C 33.26 17.19 33.02 13.82 32.92 10.47 C 32.13 10.12 30.55 9.44 29.76 9.10 Z"
     id="path12" />
  <path
     fill="#ffffff"
     d=" M 64.59 8.14 C 70.43 7.81 76.29 8.11 82.14 8.01 C 82.04 9.61 81.93 11.21 81.81 12.81 C 81.25 12.74 80.14 12.61 79.59 12.55 C 79.24 12.06 78.55 11.07 78.20 10.58 L 77.80 10.06 C 75.68 9.97 73.52 9.80 71.45 10.34 C 71.28 11.40 71.15 12.46 71.06 13.52 C 72.55 14.04 75.16 13.03 75.77 14.94 C 75.17 16.77 72.75 15.83 71.32 16.32 C 71.32 17.81 71.32 19.29 71.33 20.78 C 73.43 20.84 75.53 20.87 77.63 20.89 C 78.88 19.63 79.99 17.68 82.07 18.53 C 82.14 19.98 82.18 21.43 82.19 22.87 C 77.10 22.81 72.01 22.94 66.92 22.86 C 65.68 22.99 64.55 22.63 63.74 21.68 C 64.70 20.90 67.16 21.28 67.12 19.57 C 67.38 16.53 67.19 13.46 67.06 10.41 C 66.30 10.09 64.79 9.44 64.03 9.11 L 64.59 8.14 Z"
     id="path14" />
  <path
     fill="#f6c113"
     d=" M 16.53 15.13 C 21.86 14.88 27.20 14.86 32.54 15.16 L 32.52 16.55 C 27.21 17.00 21.88 16.66 16.57 16.75 C 16.56 16.35 16.54 15.53 16.53 15.13 Z"
     id="path16" />
  <path
     fill="#c59f18"
     d=" M 46.92 15.22 C 50.31 15.25 45.40 18.23 46.92 15.22 Z"
     id="path18" />
  <path
     fill="#f6c113"
     d=" M 54.06 15.12 C 58.25 14.90 62.45 14.89 66.64 15.12 L 66.61 16.54 C 62.46 16.91 58.29 16.89 54.14 16.56 L 54.06 15.12 Z"
     id="path20" />
  <path
     fill="#c59f18"
     d=" M 38.14 15.79 C 38.55 16.19 38.55 16.19 38.14 15.79 Z"
     id="path22" />
  <path
     fill="#2491d0"
     d=" M 2.94 30.24 C 31.75 30.54 60.58 30.02 89.38 30.51 C 89.10 45.66 89.40 60.81 89.23 75.96 C 89.01 82.65 86.89 89.10 83.89 95.03 L 83.62 94.99 C 73.71 94.24 64.16 89.88 57.04 82.94 C 52.59 78.66 48.97 73.59 45.77 68.32 C 41.29 75.44 36.20 82.41 29.20 87.25 C 23.10 91.69 15.76 93.99 8.37 95.11 C 4.57 88.39 2.66 80.67 2.77 72.96 C 2.90 58.72 2.56 44.48 2.94 30.24 Z"
     id="path24" />
  <path
     fill="#c59f18"
     d=" M 39.55 33.11 C 40.81 31.55 41.27 33.21 41.87 34.09 C 43.87 34.88 44.68 33.11 45.09 31.53 C 44.98 32.37 44.76 34.04 44.66 34.88 C 42.77 34.90 41.12 34.05 39.55 33.11 Z"
     id="path26" />
  <path
     fill="#f6c113"
     d=" M 45.09 31.53 C 46.79 31.39 47.64 32.38 47.98 33.93 C 49.50 34.70 50.65 34.30 51.43 32.72 C 53.86 32.16 53.64 34.09 53.37 35.74 C 53.82 36.08 54.74 36.76 55.20 37.10 C 55.66 36.78 56.57 36.13 57.03 35.81 C 57.53 36.18 58.52 36.92 59.02 37.29 C 58.58 38.09 58.14 38.90 57.69 39.70 C 58.06 40.13 58.79 40.99 59.15 41.42 C 61.10 40.79 62.28 41.57 62.12 43.68 L 60.32 44.37 C 58.32 45.93 60.56 49.19 62.90 47.99 C 64.14 50.74 59.96 49.65 60.29 52.38 C 60.82 52.85 61.87 53.79 62.40 54.26 C 61.67 56.86 58.55 55.51 57.51 57.88 C 57.91 58.37 58.69 59.35 59.09 59.83 C 58.58 60.30 57.56 61.24 57.05 61.71 C 56.63 61.33 55.80 60.57 55.39 60.19 C 54.94 60.43 54.05 60.92 53.61 61.16 L 53.31 61.35 C 53.15 61.96 52.83 63.16 52.67 63.76 C 51.82 63.52 50.98 63.29 50.13 63.06 L 48.74 62.74 C 47.78 63.50 46.86 64.32 45.94 65.13 C 45.38 64.51 44.81 63.91 44.24 63.31 C 43.71 63.29 42.65 63.24 42.12 63.22 C 41.33 64.24 38.44 65.63 38.65 63.20 C 38.63 62.64 38.59 61.51 38.57 60.94 C 36.62 60.82 34.59 61.11 32.75 60.29 C 33.21 59.67 34.11 58.43 34.57 57.81 C 33.63 56.53 32.57 55.37 30.90 56.33 C 30.60 55.78 30.00 54.67 29.70 54.12 C 30.22 53.76 31.25 53.03 31.77 52.67 C 31.67 52.13 31.47 51.05 31.37 50.52 C 30.04 50.11 28.41 49.84 29.13 48.03 C 31.48 49.17 33.77 45.93 31.75 44.33 L 29.91 43.61 C 30.22 42.68 30.53 41.74 30.85 40.81 C 31.34 41.02 32.33 41.43 32.82 41.64 C 33.37 40.96 33.92 40.28 34.47 39.60 C 33.99 38.85 33.51 38.09 33.02 37.34 C 33.51 36.98 34.47 36.25 34.95 35.89 C 36.10 37.35 37.53 36.69 38.86 35.92 C 38.77 35.11 38.59 33.50 38.50 32.69 L 39.55 33.11 C 41.12 34.05 42.77 34.90 44.66 34.88 C 44.76 34.04 44.98 32.37 45.09 31.53 Z"
     id="path28" />
  <path
     fill="#2491d0"
     d=" M 39.19 38.59 C 40.33 36.42 43.53 36.77 45.49 35.91 C 45.46 36.43 45.40 37.47 45.38 37.99 C 45.22 38.56 44.91 39.70 44.75 40.28 C 43.47 40.31 42.19 40.35 40.91 40.39 C 41.92 41.28 42.94 42.17 43.96 43.05 C 43.58 44.16 43.19 45.26 42.80 46.36 C 44.40 45.70 46.30 43.72 47.74 45.74 C 47.75 45.99 47.75 46.49 47.76 46.74 C 45.26 48.02 42.29 47.57 39.57 47.68 C 38.91 46.72 38.24 45.76 37.57 44.81 C 35.51 47.17 35.60 50.32 35.88 53.26 C 35.94 53.77 36.04 54.77 36.09 55.27 C 42.71 55.43 49.33 55.44 55.95 55.27 C 55.99 54.75 56.08 53.71 56.13 53.19 C 56.18 52.57 56.27 51.33 56.32 50.71 C 56.30 50.31 56.26 49.51 56.24 49.12 C 55.98 47.66 55.48 46.27 54.95 44.89 C 53.40 46.73 51.50 48.16 48.95 48.02 C 48.87 46.27 48.71 44.53 48.40 42.81 C 49.35 42.06 50.30 41.31 51.26 40.57 C 49.88 40.43 48.50 40.29 47.12 40.15 C 47.00 39.58 46.76 38.43 46.64 37.86 C 47.06 37.41 47.89 36.51 48.31 36.06 C 49.94 36.75 51.65 37.31 53.15 38.26 C 54.27 39.53 55.44 40.75 56.68 41.90 C 60.96 48.27 57.77 57.79 50.56 60.34 C 43.28 63.52 34.14 57.93 33.51 50.07 C 33.39 47.48 33.42 44.03 35.61 42.33 C 37.57 41.98 38.99 40.61 39.19 38.59 Z"
     id="path30" />
  <path
     fill="#175397"
     d=" M 35.61 42.33 C 35.36 40.66 37.46 38.29 39.19 38.59 C 38.99 40.61 37.57 41.98 35.61 42.33 Z"
     id="path32" />
  <path
     fill="#c59f18"
     d=" M 45.38 37.99 L 46.08 36.91 L 46.64 37.86 C 46.76 38.43 47.00 39.58 47.12 40.15 C 48.50 40.29 49.88 40.43 51.26 40.57 C 50.30 41.31 49.35 42.06 48.40 42.81 C 48.71 44.53 48.87 46.27 48.95 48.02 C 51.50 48.16 53.40 46.73 54.95 44.89 C 55.48 46.27 55.98 47.66 56.24 49.12 C 54.79 48.53 53.70 48.84 52.96 50.04 C 53.78 51.20 54.90 51.42 56.32 50.71 C 56.27 51.33 56.18 52.57 56.13 53.19 C 53.43 53.51 50.72 53.61 48.01 53.73 C 47.88 53.12 47.64 51.90 47.51 51.29 C 46.52 51.27 45.52 51.25 44.53 51.23 C 44.40 51.85 44.13 53.10 44.00 53.72 C 41.30 53.53 38.59 53.39 35.88 53.26 C 35.60 50.32 35.51 47.17 37.57 44.81 C 38.24 45.76 38.91 46.72 39.57 47.68 C 42.29 47.57 45.26 48.02 47.76 46.74 C 47.75 46.49 47.75 45.99 47.74 45.74 C 46.30 43.72 44.40 45.70 42.80 46.36 C 43.19 45.26 43.58 44.16 43.96 43.05 C 42.94 42.17 41.92 41.28 40.91 40.39 C 42.19 40.35 43.47 40.31 44.75 40.28 C 44.91 39.70 45.22 38.56 45.38 37.99 Z"
     id="path34" />
  <path
     fill="#c59f18"
     d=" M 53.15 38.26 C 55.07 36.88 58.14 40.03 56.68 41.90 C 55.44 40.75 54.27 39.53 53.15 38.26 Z"
     id="path36" />
  <path
     fill="#c59f18"
     d=" M 31.75 44.33 C 33.77 45.93 31.48 49.17 29.13 48.03 L 29.18 47.62 C 30.43 46.85 31.35 45.75 31.75 44.33 Z"
     id="path38" />
  <path
     fill="#c59f18"
     d=" M 62.90 47.99 C 60.56 49.19 58.32 45.93 60.32 44.37 C 60.80 45.71 61.62 46.85 62.86 47.60 L 62.90 47.99 Z"
     id="path40" />
  <path
     fill="#f6c113"
     d=" M 52.96 50.04 C 53.70 48.84 54.79 48.53 56.24 49.12 C 56.26 49.51 56.30 50.31 56.32 50.71 C 54.90 51.42 53.78 51.20 52.96 50.04 Z"
     id="path42" />
  <path
     fill="#f6c113"
     d=" M 44.53 51.23 C 45.52 51.25 46.52 51.27 47.51 51.29 C 47.64 51.90 47.88 53.12 48.01 53.73 C 50.72 53.61 53.43 53.51 56.13 53.19 C 56.08 53.71 55.99 54.75 55.95 55.27 C 49.33 55.44 42.71 55.43 36.09 55.27 C 36.04 54.77 35.94 53.77 35.88 53.26 C 38.59 53.39 41.30 53.53 44.00 53.72 C 44.13 53.10 44.40 51.85 44.53 51.23 Z"
     id="path44" />
  <path
     fill="#175397"
     d=" M 32.75 60.29 C 34.59 61.11 36.62 60.82 38.57 60.94 C 38.59 61.51 38.63 62.64 38.65 63.20 C 38.44 65.63 41.33 64.24 42.12 63.22 C 41.83 63.67 41.25 64.57 40.96 65.02 C 40.34 64.94 39.09 64.76 38.47 64.68 C 38.36 63.93 38.13 62.44 38.02 61.70 C 36.14 61.75 33.65 62.54 32.75 60.29 Z"
     id="path46" />
  <path
     fill="#c59f18"
     d=" M 53.31 61.35 L 53.61 61.16 C 53.65 61.87 53.72 63.30 53.75 64.01 C 52.93 64.34 52.10 64.67 51.28 65.01 C 50.99 64.52 50.42 63.55 50.13 63.06 C 50.98 63.29 51.82 63.52 52.67 63.76 C 52.83 63.16 53.15 61.96 53.31 61.35 Z"
     id="path48" />
  <path
     fill="#c59f18"
     d=" M 44.24 63.31 C 44.81 63.91 45.38 64.51 45.94 65.13 C 46.86 64.32 47.78 63.50 48.74 62.74 C 47.92 64.55 47.02 66.54 44.63 65.80 C 44.53 65.18 44.34 63.94 44.24 63.31 Z"
     id="path50" />
  <path
     fill="#ffffff"
     d=" M 29.20 87.25 C 36.20 82.41 41.29 75.44 45.77 68.32 C 48.97 73.59 52.59 78.66 57.04 82.94 C 64.16 89.88 73.71 94.24 83.62 94.99 C 76.63 108.22 61.94 116.79 47.05 116.99 C 31.40 117.57 16.01 108.73 8.37 95.11 C 15.76 93.99 23.10 91.69 29.20 87.25 Z"
     id="path52" />
  <path
     fill="#c82a27"
     d=" M 43.51 76.98 C 44.32 76.30 45.15 75.63 46.00 74.99 C 46.94 75.66 47.87 76.35 48.79 77.06 C 48.17 77.61 47.44 77.91 46.61 77.97 L 45.15 77.15 C 45.03 78.37 44.89 79.58 44.73 80.79 L 44.21 80.97 C 44.25 80.23 44.33 78.77 44.37 78.04 C 44.15 77.77 43.72 77.24 43.51 76.98 Z"
     id="path54" />
  <path
     fill="#f6c113"
     d=" M 44.73 80.79 C 44.89 79.58 45.03 78.37 45.15 77.15 L 46.61 77.97 C 47.38 78.80 47.79 79.83 47.83 81.04 C 53.90 81.66 57.53 88.42 56.18 94.07 C 53.60 92.51 56.89 88.07 53.92 86.16 C 53.08 87.01 52.27 87.89 51.48 88.79 C 51.79 89.27 52.42 90.23 52.73 90.71 C 52.52 91.26 52.09 92.37 51.88 92.92 C 52.80 94.13 54.04 94.98 55.44 95.54 C 54.22 97.19 53.33 99.47 51.08 99.94 C 49.62 100.69 47.54 100.55 46.59 102.04 C 46.77 104.88 49.21 106.54 51.24 108.11 C 47.84 108.41 44.42 108.38 41.01 108.24 C 42.80 106.42 45.41 104.84 45.49 101.97 C 43.80 100.28 40.93 100.51 39.31 98.63 C 36.02 95.97 35.31 91.42 35.92 87.45 C 37.07 89.05 37.75 91.41 40.26 90.49 C 40.15 89.71 39.93 88.14 39.83 87.36 C 38.61 87.14 37.39 86.92 36.18 86.68 C 37.96 83.79 40.82 81.57 44.21 80.97 L 44.73 80.79 Z"
     id="path56" />
  <path
     fill="#c59f18"
     d=" M 91.19 83.54 C 89.95 82.06 90.57 80.06 92.00 78.99 L 92.00 83.55 L 91.19 83.54 Z"
     id="path58" />
  <path
     fill="#ffffff"
     d=" M 42.23 82.21 C 42.76 82.77 42.76 82.77 42.23 82.21 Z"
     id="path60" />
  <path
     fill="#ffffff"
     d=" M 43.98 82.54 C 45.05 82.00 48.58 81.61 48.18 83.42 C 47.12 83.69 43.19 84.38 43.98 82.54 Z"
     id="path62" />
  <path
     fill="#ffffff"
     d=" M 49.42 82.22 C 49.93 82.79 49.93 82.79 49.42 82.22 Z"
     id="path64" />
  <path
     fill="#ffffff"
     d=" M 51.01 84.14 C 52.62 83.79 53.31 84.41 53.07 86.02 C 51.46 86.38 50.78 85.76 51.01 84.14 Z"
     id="path68" />
  <path
     fill="#c59f18"
     d=" M 1.38 84.66 C 2.64 85.56 2.84 86.69 1.98 88.06 C 1.15 87.03 0.95 85.89 1.38 84.66 Z"
     id="path72" />
  <path
     fill="#ffffff"
     d=" M 43.39 84.69 C 45.69 85.88 47.89 84.22 50.22 84.66 C 50.29 85.32 50.44 86.63 50.51 87.29 C 47.75 87.89 45.52 86.12 43.39 84.69 Z"
     id="path74" />
  <path
     fill="#c59f18"
     d=" M 89.72 88.04 C 89.20 86.58 89.62 85.52 90.97 84.87 C 91.22 86.21 90.80 87.27 89.72 88.04 Z"
     id="path76" />
  <path
     fill="#ffffff"
     d=" M 40.67 87.58 C 42.52 87.83 44.34 88.26 46.09 88.93 C 45.07 90.91 42.76 90.64 40.94 90.41 C 40.88 89.70 40.74 88.29 40.67 87.58 Z"
     id="path78" />
  <path
     fill="#ffffff"
     d=" M 49.33 88.03 C 50.92 87.65 51.50 88.28 51.07 89.93 C 49.50 90.30 48.92 89.66 49.33 88.03 Z"
     id="path80" />
  <path
     fill="#c59f18"
     d=" M 88.99 91.14 C 89.19 90.55 89.58 89.38 89.78 88.80 C 89.58 89.38 89.19 90.55 88.99 91.14 Z"
     id="path82" />
  <path
     fill="#ffffff"
     d=" M 47.06 91.56 C 48.39 90.57 50.27 92.65 49.54 93.94 C 48.14 95.14 45.27 92.97 47.06 91.56 Z"
     id="path84" />
  <path
     fill="#ffffff"
     d=" M 37.54 94.44 C 36.51 93.46 37.25 91.01 38.90 91.59 C 41.06 92.28 39.34 95.90 37.54 94.44 Z"
     id="path86" />
  <path
     fill="#ffffff"
     d=" M 41.16 92.14 C 42.17 91.09 44.74 91.25 44.95 92.93 C 44.35 94.37 40.19 94.10 41.16 92.14 Z"
     id="path88" />
  <path
     fill="#ffffff"
     d=" M 40.02 95.35 C 41.19 95.46 42.00 97.92 40.35 97.89 C 39.04 97.87 38.52 95.44 40.02 95.35 Z"
     id="path90" />
  <path
     fill="#ffffff"
     d=" M 41.39 94.66 C 44.40 94.62 47.41 94.68 50.43 94.72 C 50.43 95.40 50.42 96.74 50.42 97.42 C 48.58 97.73 46.81 96.32 45.05 96.99 C 43.12 98.34 41.54 96.62 41.39 94.66 Z"
     id="path92" />
  <path
     fill="#ffffff"
     d=" M 50.96 97.31 C 51.46 97.80 51.46 97.80 50.96 97.31 Z"
     id="path94" />
  <path
     fill="#ffffff"
     d=" M 43.58 98.98 C 44.43 97.75 47.70 97.62 48.45 98.99 C 47.46 100.34 44.54 100.34 43.58 98.98 Z"
     id="path96" />
  <path
     fill="#ffffff"
     d=" M 49.39 99.28 C 49.88 99.88 49.88 99.88 49.39 99.28 Z"
     id="path98" />
  <path
     fill="#c59f18"
     d=" M 71.21 112.71 C 71.32 112.63 71.56 112.47 71.68 112.39 C 71.56 112.47 71.32 112.63 71.21 112.71 Z"
     id="path100" />
  <path
     fill="#c59f18"
     d=" M 29.89 117.01 C 30.48 117.17 31.67 117.50 32.26 117.67 C 31.67 117.50 30.48 117.17 29.89 117.01 Z"
     id="path102" />
  <path
     fill="#c59f18"
     d=" M 59.75 117.64 C 60.35 117.49 61.54 117.17 62.14 117.01 C 61.54 117.17 60.35 117.49 59.75 117.64 Z"
     id="path104" />
  <path
     fill="#c59f18"
     d=" M 32.91 117.84 C 34.35 117.13 35.44 117.46 36.17 118.81 C 34.90 119.11 33.81 118.79 32.91 117.84 Z"
     id="path106" />
  <path
     fill="#c59f18"
     d=" M 55.72 118.66 C 56.62 117.45 57.76 117.21 59.12 117.95 C 58.12 118.89 56.99 119.12 55.72 118.66 Z"
     id="path108" />
  <path
     fill="#c59f18"
     d=" M 37.45 119.29 C 39.23 118.02 41.55 118.41 42.99 120.00 L 37.39 120.00 L 37.45 119.29 Z"
     id="path110" />
  <path
     fill="#c59f18"
     d=" M 48.91 120.00 C 50.38 118.38 52.90 117.86 54.58 119.49 L 54.11 120.00 L 48.91 120.00 Z"
     id="path112" />
</svg>
